<svg xmlns="http://www.w3.org/2000/svg" width="128" height="128" preserveAspectRatio="xMidYMid"><defs><style>.cls-1 { fill: #595959; fill-rule: evenodd; }</style></defs><path d="M122 128H6c-3.3 0-6-2.7-6-6V22c0-3.3 2.7-6 6-6h12v6c0 7.73 6.27 14 14 14s14-6.27 14-14v-6h36v6c0 7.73 6.27 14 14 14s14-6.27 14-14v-6h12c3.3 0 6 2.7 6 6v100c0 3.3-2.7 6-6 6zm-6-80H12v68h104V48zM39.6 89.43c1.03-1.23 2.25-2.37 3.66-3.4 1.4-1.05 2.88-2.1 4.44-3.18.8-.55 1.65-1.12 2.55-1.7.9-.56 1.73-1.2 2.47-1.9.75-.68 1.37-1.46 1.87-2.33.5-.86.75-1.85.75-2.96 0-1.77-.52-3.15-1.54-4.13-1-1-2.32-1.5-3.9-1.5-1.1 0-2 .27-2.74.77-.75.5-1.35 1.16-1.8 1.97-.45.82-.77 1.72-.96 2.7-.2 1-.28 1.98-.28 2.95h-7.08c-.07-2.08.18-4.02.73-5.8.56-1.8 1.4-3.35 2.5-4.68 1.1-1.34 2.5-2.38 4.18-3.12 1.68-.75 3.62-1.12 5.8-1.12 1.66 0 3.25.26 4.76.78 1.52.52 2.84 1.27 4 2.24 1.13.97 2.04 2.16 2.72 3.58.67 1.43 1 3.02 1 4.8 0 1.83-.28 3.4-.87 4.72-.6 1.32-1.37 2.5-2.34 3.5-.96 1.03-2.06 1.96-3.3 2.8-1.23.82-2.47 1.65-3.7 2.46-1.26.82-2.47 1.7-3.65 2.63-1.18.94-2.22 2.03-3.12 3.28h17.2v6.35H36.22c0-2.12.3-3.95.92-5.5.6-1.57 1.43-2.97 2.47-4.2zM74.2 92.3c1.08.98 2.45 1.47 4.1 1.47.98 0 1.86-.2 2.64-.6.78-.4 1.44-.9 1.97-1.56.54-.63.96-1.37 1.25-2.22.3-.85.44-1.73.44-2.63 0-.93-.14-1.82-.4-2.65-.3-.83-.7-1.56-1.26-2.18-.56-.63-1.2-1.1-1.98-1.46-.76-.35-1.64-.52-2.65-.52-1.32 0-2.4.23-3.22.7-.82.47-1.6 1.2-2.33 2.2H66.1l3.6-20.1h20.33v6.07H75l-1.45 8.28.1.1c1-1 2.08-1.72 3.22-2.15 1.15-.44 2.45-.65 3.9-.65 1.8 0 3.4.33 4.8.98 1.38.66 2.55 1.55 3.5 2.66.95 1.1 1.68 2.4 2.18 3.92.5 1.5.76 3.1.76 4.8 0 1.88-.36 3.63-1.08 5.24-.73 1.6-1.7 3-2.94 4.18-1.23 1.18-2.66 2.1-4.3 2.73-1.62.63-3.36.94-5.2.9-1.76 0-3.45-.23-5.06-.7-1.6-.47-3.05-1.18-4.3-2.16-1.24-.97-2.24-2.17-2.98-3.6-.75-1.45-1.14-3.12-1.17-5.03h7.38c.17 1.68.8 3 1.87 4zM96 28c-3.3 0-6-2.7-6-6V6c0-3.3 2.7-6 6-6s6 2.7 6 6v16c0 3.3-2.7 6-6 6zm-64 0c-3.3 0-6-2.7-6-6V6c0-3.3 2.7-6 6-6s6 2.7 6 6v16c0 3.3-2.7 6-6 6z" class="cls-1"/></svg>