<svg xmlns="http://www.w3.org/2000/svg" xmlns:xlink="http://www.w3.org/1999/xlink" preserveAspectRatio="xMidYMid" width="31" height="26" viewBox="0 0 31 26">
  <defs>
    <style>
      .cls-1 {
        fill: #9a9a9a;
        fill-rule: evenodd;
      }
    </style>
  </defs>
  <path d="M29.547,2.889 L1.453,2.889 C0.651,2.889 0.000,2.242 0.000,1.445 C0.000,0.647 0.651,0.000 1.453,0.000 L29.547,0.000 C30.349,0.000 31.000,0.647 31.000,1.445 C31.000,2.242 30.349,2.889 29.547,2.889 ZM1.453,7.704 L9.688,7.704 L15.984,7.704 L17.438,7.704 L17.438,7.704 L23.734,7.704 C24.537,7.704 25.188,8.350 25.188,9.148 C25.188,9.946 24.537,10.593 23.734,10.593 L20.828,10.593 C20.828,10.593 20.828,10.593 20.828,10.593 L9.688,10.593 L9.688,10.593 L1.453,10.593 C0.651,10.593 0.000,9.946 0.000,9.148 C0.000,8.351 0.651,7.704 1.453,7.704 ZM1.453,15.408 L29.547,15.408 C30.349,15.408 31.000,16.054 31.000,16.852 C31.000,17.650 30.349,18.296 29.547,18.296 L1.453,18.296 C0.651,18.296 0.000,17.650 0.000,16.852 C0.000,16.054 0.651,15.408 1.453,15.408 ZM1.453,23.111 L9.688,23.111 L15.984,23.111 L20.828,23.111 C21.631,23.111 22.281,23.758 22.281,24.556 C22.281,25.353 21.631,26.000 20.828,26.000 L15.984,26.000 L15.984,26.000 L1.453,26.000 C0.651,26.000 0.000,25.353 0.000,24.556 C0.000,23.758 0.651,23.111 1.453,23.111 Z" class="cls-1"/>
</svg>
