<svg xmlns="http://www.w3.org/2000/svg" xmlns:xlink="http://www.w3.org/1999/xlink" preserveAspectRatio="xMidYMid" width="33" height="33" viewBox="0 0 33 33">
  <defs>
    <style>
      .cls-1 {
        fill: #fe5b5F;
        fill-rule: evenodd;
      }
    </style>
  </defs>
  <path d="M32.996,31.149 L31.148,32.999 L21.370,23.209 C19.114,25.063 16.228,26.177 13.081,26.177 C5.863,26.177 0.010,20.319 0.010,13.090 C0.010,5.861 5.863,0.001 13.081,0.001 C20.301,0.001 26.153,5.861 26.153,13.090 C26.153,16.226 25.049,19.101 23.213,21.355 L32.996,31.149 ZM13.081,2.617 C7.306,2.617 2.625,7.307 2.625,13.090 C2.625,18.873 7.306,23.561 13.081,23.561 C18.857,23.561 23.539,18.873 23.539,13.090 C23.539,7.307 18.857,2.617 13.081,2.617 Z" class="cls-1"/>
</svg>
