<svg xmlns="http://www.w3.org/2000/svg" xmlns:xlink="http://www.w3.org/1999/xlink" xmlns:a="http://ns.adobe.com/AdobeSVGViewerExtensions/3.0/" version="1.1"><defs></defs><path d="M255.556 155.556H22.222C9.95 155.6 0 165.5 0 177.777C0 190.1 9.9 200 22.2 200h233.333 c12.271 0 22.222-9.95 22.222-22.223C277.777 165.5 267.8 155.6 255.6 155.6 M22.222 44.444h233.333 c12.271 0 22.222-9.95 22.222-22.222S267.827 0 255.6 0H22.222C9.95 0 0 9.9 0 22.222S9.95 44.4 22.2 44.4 M255.556 77.8 H22.222C9.95 77.8 0 87.7 0 100c0 12.3 9.9 22.2 22.2 22.223h233.333c12.271 0 22.222-9.95 22.222-22.223 C277.777 87.7 267.8 77.8 255.6 77.8"/></svg>
