<?xml version="1.0" standalone="no"?>
<!DOCTYPE svg PUBLIC "-//W3C//DTD SVG 20010904//EN"
 "http://www.w3.org/TR/2001/REC-SVG-20010904/DTD/svg10.dtd">
<svg version="1.0" xmlns="http://www.w3.org/2000/svg"
 width="344.000000pt" height="344.000000pt" viewBox="0 0 344.000000 344.000000"
 preserveAspectRatio="xMidYMid meet">
<metadata>
Created by potrace 1.11, written by Peter Selinger 2001-2013
</metadata>
<g transform="translate(0.000000,344.000000) scale(0.100000,-0.100000)"
fill="#000000" stroke="none">
<path d="M1455 3425 c-189 -41 -342 -147 -449 -308 -119 -181 -160 -379 -120
-574 43 -209 181 -481 402 -793 113 -158 313 -400 332 -400 23 0 242 280 367
472 196 297 314 579 338 804 15 136 -36 334 -119 468 -158 254 -472 393 -751
331z m55 -470 c-56 -130 -197 -277 -330 -344 -45 -22 -85 -39 -89 -36 -9 5 -1
65 8 65 4 0 54 31 112 68 118 77 234 181 276 248 36 57 48 56 23 -1z m142 -52
c33 -36 109 -61 256 -87 77 -14 155 -31 173 -39 77 -32 129 -121 129 -220 0
-146 -173 -505 -387 -807 -82 -114 -195 -259 -203 -260 -14 -1 -240 291 -337
435 -70 105 -68 113 8 39 65 -62 130 -117 194 -164 11 -8 -14 23 -56 70 -218
244 -320 428 -337 611 l-8 77 71 17 c219 52 375 190 450 400 7 17 9 15 17 -15
5 -19 19 -45 30 -57z"/>
<path d="M2395 826 c-68 -29 -125 -123 -147 -241 l-11 -65 -39 0 c-31 0 -38
-3 -38 -20 0 -17 7 -20 41 -20 l41 0 -4 -235 -3 -235 48 0 48 0 -3 233 -3 232
58 3 c49 3 57 6 57 22 0 18 -7 20 -59 20 l-59 0 -7 69 c-9 88 -1 125 33 152
22 17 36 20 75 15 l47 -5 0 44 c0 40 -2 45 -22 45 -13 -1 -37 -7 -53 -14z"/>
<path d="M1580 760 c-24 -24 -25 -38 -4 -68 36 -51 122 -5 93 50 -23 43 -57
50 -89 18z"/>
<path d="M2572 764 c-58 -40 5 -118 69 -84 25 14 25 61 1 83 -23 21 -41 21
-70 1z"/>
<path d="M165 385 l0 -375 51 0 51 0 -5 190 -5 190 233 0 232 0 -3 -190 -4
-190 50 0 50 0 0 375 0 375 -50 0 -51 0 4 -160 4 -160 -232 0 -233 0 6 160 5
160 -51 0 -52 0 0 -375z"/>
<path d="M1102 526 c-64 -21 -92 -43 -92 -71 0 -29 12 -32 31 -8 20 23 88 53
124 53 34 0 89 -30 103 -57 5 -10 13 -37 16 -59 11 -64 1 -70 -177 -104 -103
-20 -160 -96 -137 -181 27 -100 170 -131 269 -59 47 34 51 35 51 16 0 -34 77
-58 124 -40 22 8 20 24 -3 24 -35 0 -40 22 -43 210 -3 175 -4 187 -26 218 -13
18 -37 39 -54 48 -43 22 -134 27 -186 10z m181 -323 c-6 -95 -14 -114 -63
-142 -54 -30 -95 -27 -131 8 -23 23 -29 38 -29 71 0 52 13 76 50 95 26 13 130
41 167 44 8 1 10 -21 6 -76z"/>
<path d="M2030 518 c-19 -13 -44 -38 -55 -55 -28 -45 -37 -41 -29 15 l6 47
-46 0 -46 0 0 -257 0 -258 45 0 45 0 0 176 c0 199 8 229 65 260 28 15 40 16
69 7 l36 -11 0 39 c0 21 1 42 3 47 6 19 -61 11 -93 -10z"/>
<path d="M2968 528 c-50 -13 -112 -69 -139 -126 -34 -67 -34 -208 -2 -269 59
-109 196 -158 330 -118 66 20 103 49 103 82 l0 26 -22 -21 c-34 -31 -108 -62
-151 -62 -42 0 -101 22 -131 48 -29 26 -56 92 -56 140 l0 42 190 0 190 0 0 53
c-1 155 -144 250 -312 205z m164 -54 c28 -26 58 -92 58 -131 l0 -33 -145 0
c-80 0 -145 3 -145 8 0 23 25 91 43 115 46 66 138 86 189 41z"/>
<path d="M1575 270 l0 -260 45 0 45 0 0 260 0 260 -45 0 -45 0 0 -260z"/>
<path d="M2562 270 l0 -260 47 0 46 0 -3 260 -3 260 -43 0 -44 0 0 -260z"/>
</g>
</svg>
