<svg xmlns="http://www.w3.org/2000/svg" width="28.031" height="43.032" preserveAspectRatio="xMidYMid"><defs><style>.cls-1 { fill: #b6b6b6; fill-rule: evenodd; }</style></defs><path d="M26.94 8.58c-1.07-2.52-2.84-4.66-5.07-6.17C19.63.9 16.92 0 14.02 0c-1.93 0-3.77.4-5.45 1.1C6.05 2.2 3.9 3.97 2.4 6.2.9 8.44 0 11.15 0 14.05c0 1.93.4 3.8 1.1 5.47 1.07 2.52 2.94 4.66 5.18 6.17 1.66 1.12 1.8 1.9 5.76 2.22v6.48H7.5c-1.13 0-2.05.34-2.05 1.48 0 1.15.92 1.5 2.06 1.5h4.54v3.48c0 1.2.78 2.17 1.98 2.17S16 42.06 16 40.86v-3.5h4.54c1.14 0 2.06-.33 2.06-1.48 0-1.14-.92-1.48-2.07-1.48H16v-6.48c0-.18 2.35-.5 3.4-.93 2.5-1.08 4.7-2.86 6.2-5.1 1.5-2.24 2.42-4.95 2.42-7.85 0-1.93-.37-3.8-1.08-5.47zm-3.17 9.6c-.8 1.9-2.14 3.5-3.83 4.65-1.7 1.15-3.72 1.8-5.92 1.8-1.46 0-2.85-.28-4.1-.82C8 23 6.4 21.67 5.24 19.98c-1.13-1.7-1.8-3.72-1.8-5.92 0-1.47.3-2.85.83-4.12.8-1.9 2.15-3.52 3.83-4.66 1.7-1.14 3.73-1.8 5.92-1.8 1.47 0 2.86.3 4.12.82 1.9.8 3.5 2.14 4.66 3.83 1.13 1.7 1.8 3.72 1.8 5.92 0 1.47-.3 2.86-.83 4.12z" class="cls-1"/></svg>