<svg xmlns="http://www.w3.org/2000/svg" width="40" height="35" preserveAspectRatio="xMidYMid"><defs><style>.cls-1 { fill: #C4C4C4; fill-rule: evenodd; }</style></defs><path d="M38.9 10.4c-.2 0-.4-.1-.57-.18l-1.46-.87c-.58-.34-1.25-.34-1.83 0-1.24.74-2.84.74-4.08 0L29.5 8.5c-.54-.3-.72-.96-.4-1.48.3-.52.97-.7 1.5-.4l1.47.87c.58.34 1.24.34 1.82 0 1.23-.74 2.83-.74 4.08 0l1.46.86c.53.3.7.95.4 1.52-.18.34-.58.5-.93.5zm-.04-4.34c-.22 0-.4-.08-.57-.17L36.8 5c-.58-.34-1.24-.34-1.82 0-1.24.74-2.84.74-4.1 0l-1.45-.86c-.54-.3-.7-.96-.4-1.48.3-.52.97-.7 1.5-.4l1.47.88c.58.3 1.3.3 1.82.04 1.25-.73 2.85-.73 4.1 0l1.46.87c.53.3.7.95.4 1.47-.18.35-.58.52-.94.52zM25.8 12.9l-8.88 2.17c-.1.05-.18.05-.27.05H12.2v7.58c0 .6-.48 1.08-1.1 1.08H8.4L7.27 25.6c-.67 1.12-.67 2.5 0 3.6 1.1 1.77 1.1 4.02 0 5.8l-1.9-1.13c.66-1.13.66-2.5 0-3.6-1.12-1.77-1.12-4.02 0-5.8l.57-.95c-.23-.18-.4-.48-.4-.82v-7.63C2.4 14.55 0 11.87 0 8.67V6.5C0 2.9 2.97 0 6.66 0h10c.04 0 .04 0 .08 0 .05 0 .14 0 .18 0l8.88 2.17c.5.13.85.56.85 1.03v8.67c0 .47-.36.9-.85 1.04zM7.77 21.6H10v-6.48H7.76v6.5zm7.77-19.48H6.66c-1.1 0-2.13.4-2.93 1.08h1.82c.62 0 1.1.48 1.1 1.1 0 .6-.48 1.07-1.1 1.07h-3.2c-.1.35-.13.7-.13 1.08h3.33c.62 0 1.1.48 1.1 1.1 0 .6-.48 1.07-1.1 1.07H2.22c0 .4.04.74.13 1.08h3.2c.62 0 1.1.48 1.1 1.08 0 .6-.48 1.1-1.1 1.1H3.73c.8.68 1.82 1.07 2.93 1.07h8.88V2.12zm8.9 1.95l-6.68-1.65v10.23L24.43 11V4.07zm6.16 6.9l1.47.85c.58.35 1.24.35 1.82 0 1.23-.73 2.83-.73 4.08 0l1.46.87c.53.3.7.94.4 1.5-.18.35-.58.53-.93.53-.2 0-.4-.1-.57-.18l-1.46-.86c-.58-.36-1.25-.36-1.83 0-1.24.72-2.84.72-4.08 0l-1.47-.88c-.54-.3-.72-.95-.4-1.47.3-.52.97-.7 1.5-.4z" class="cls-1"/></svg>