<svg xmlns="http://www.w3.org/2000/svg" width="36" height="36" preserveAspectRatio="xMidYMid"><defs><style>.cls-1 { fill: #fff; fill-rule: evenodd; }</style></defs><path d="M33.87 17.44c-1.15 0-2.1-.94-2.1-2.1V7.42l-5.97 5.95c.7.95 1.27 1.95 1.7 3 .7 1.72 1.05 3.53 1.05 5.35 0 1.83-.35 3.65-1.04 5.38-.7 1.72-1.73 3.34-3.13 4.73-1.4 1.4-3.03 2.44-4.76 3.14-1.7.7-3.55 1.03-5.38 1.03-1.82 0-3.64-.35-5.35-1.05-1.7-.7-3.3-1.74-4.7-3.12-1.38-1.4-2.43-3-3.13-4.7C.34 25.4 0 23.57 0 21.75c0-1.83.34-3.65 1.04-5.36.7-1.72 1.75-3.33 3.14-4.7L5.4 12.9l1.25 1.24C5.6 15.2 4.83 16.42 4.3 17.7c-.53 1.3-.8 2.68-.8 4.06 0 1.37.26 2.75.8 4.04.52 1.3 1.3 2.5 2.36 3.55C7.7 30.4 8.9 31.2 10.2 31.71c1.3.54 2.65.8 4.02.8 1.4 0 2.78-.26 4.08-.78 1.3-.52 2.53-1.3 3.6-2.36 1.05-1.06 1.83-2.27 2.35-3.57.53-1.3.8-2.7.8-4.08 0-1.36-.28-2.73-.8-4.02-.53-1.3-1.3-2.5-2.36-3.54-1.06-1.04-2.26-1.83-3.54-2.36-1.28-.52-2.63-.8-4-.8-1.4 0-2.8.27-4.1.8-1.32.5-2.54 1.3-3.6 2.36L5.4 12.92 4.2 11.68c1.4-1.4 3.04-2.45 4.78-3.14 1.74-.7 3.58-1.03 5.4-1.03 1.83 0 3.64.37 5.34 1.07 1.04.43 2.04 1 2.97 1.7l6.06-6.06h-8.1c-1.18 0-2.12-.93-2.12-2.1 0-1.15.95-2.1 2.12-2.1h13.25c1.17 0 2.1.95 2.1 2.1v13.24c0 1.16-.93 2.1-2.1 2.1z" class="cls-1"/></svg>