<svg xmlns="http://www.w3.org/2000/svg" width="35" height="32" preserveAspectRatio="xMidYMid"><defs><style>.cls-1 { fill: #c4c4c4; fill-rule: evenodd; }</style></defs><path d="M34.96 28.46c-.3 1.22-1.58 3.54-4.18 3.54H4.1C1.5 32 .3 29.65.04 28.4L0 28.18V21.7C0 16.5 0 8.3 0 8.3c0-1.57.6-2.5 1.13-3.02 1.1-1.1 2.54-1.13 2.7-1.13H8.4c.25-.5.63-1.28 1.08-2.12.9-1.7 2.67-2.07 3.6-2.02h8.72c.95-.04 2.7.33 3.6 2.03.46.85.85 1.6 1.1 2.12h4.56c.18 0 1.7.04 2.82 1.16.5.52 1.12 1.46 1.12 3v20l-.04.16zM32.63 8.3c0-1.57-1.1-1.77-1.58-1.78h-6.03l-.33-.67s-.6-1.25-1.4-2.72c-.4-.8-1.38-.76-1.38-.76h-8.95c-.08 0-.98-.02-1.4.76-.77 1.47-1.36 2.7-1.37 2.72l-.32.67H3.83c-.53.02-1.46.27-1.46 1.78v19.72c.1.4.55 1.6 1.74 1.6H30.8c1.2 0 1.7-1.23 1.85-1.63V8.3zM17.45 25.9c-4.68 0-8.5-3.8-8.5-8.48 0-4.68 3.82-8.48 8.5-8.48s8.5 3.8 8.5 8.48c0 4.67-3.82 8.48-8.5 8.48zm0-14.6c-3.38 0-6.12 2.75-6.12 6.12 0 3.36 2.74 6.1 6.12 6.1 3.37 0 6.1-2.73 6.1-6.1 0-3.37-2.73-6.1-6.1-6.1z" class="cls-1"/></svg>