<svg xmlns="http://www.w3.org/2000/svg" xmlns:xlink="http://www.w3.org/1999/xlink" preserveAspectRatio="xMidYMid" width="75" height="75" viewBox="0 0 75 75">
  <defs>
    <style>
      .cls-1 {
        fill: #fc6064;
        fill-rule: evenodd;
      }
    </style>
  </defs>
  <path d="M71.484,60.938 L59.766,60.938 L59.766,43.359 L67.969,43.359 L67.969,7.031 L25.781,7.031 L25.781,10.547 L18.750,10.547 L18.750,3.516 C18.750,1.574 20.324,0.000 22.266,0.000 L71.484,0.000 C73.426,0.000 75.000,1.574 75.000,3.516 L75.000,57.422 C75.000,59.364 73.426,60.938 71.484,60.938 ZM56.250,17.578 L56.250,71.485 C56.250,73.426 54.676,75.000 52.734,75.000 L3.516,75.000 C1.574,75.000 0.000,73.426 0.000,71.485 L0.000,17.578 C0.000,15.637 1.574,14.063 3.516,14.063 L52.734,14.063 C54.676,14.063 56.250,15.637 56.250,17.578 ZM49.219,21.094 L7.031,21.094 L7.031,57.422 L10.744,57.422 C11.418,56.449 12.322,55.567 13.542,54.959 C16.550,53.462 15.392,54.677 19.084,53.145 C22.777,51.615 23.652,51.081 23.652,51.081 L23.687,47.554 C23.687,47.554 22.304,46.496 21.874,43.177 C21.008,43.427 20.723,42.161 20.672,41.354 C20.625,40.575 20.171,38.142 21.226,38.361 C21.011,36.736 20.856,35.271 20.932,34.495 C21.196,31.770 23.819,28.923 27.860,28.715 C32.613,28.923 34.496,31.768 34.760,34.493 C34.837,35.269 34.667,36.736 34.451,38.358 C35.508,38.141 35.048,40.570 34.997,41.349 C34.950,42.156 34.658,43.418 33.795,43.169 C33.363,46.487 31.980,47.537 31.980,47.537 L32.013,51.046 C32.013,51.046 32.887,51.546 36.580,53.076 C40.273,54.608 39.114,53.462 42.122,54.960 C43.343,55.567 44.246,56.449 44.920,57.422 L49.219,57.422 L49.219,21.094 Z" class="cls-1"/>
</svg>
