<?xml version="1.0" encoding="utf-8"?>
<!-- Generator: Adobe Illustrator 19.0.0, SVG Export Plug-In . SVG Version: 6.00 Build 0)  -->
<svg version="1.1" id="Calque_1" xmlns="http://www.w3.org/2000/svg" xmlns:xlink="http://www.w3.org/1999/xlink" x="0px" y="0px"
	 viewBox="0 0 109.8 110" style="enable-background:new 0 0 109.8 110;" xml:space="preserve">
<style type="text/css">
	.st0{fill:none;stroke:#fff;stroke-width:4;stroke-miterlimit:10;}
	.st1{fill:none;stroke:#fff;stroke-width:5;stroke-miterlimit:10;}
</style>
<circle class="st0" cx="195" cy="55" r="54"/>
<g>
	<path d="M200.7,40.4c1.6,0,2.7,0.6,2.1,3.2c-0.8,3.9-2.3,11.3-4.3,21.8c-1.6,8.5-2.8,13.8-3.4,17.1c-0.2,0.9,0.2,1.3,0.7,1.3
		c0.8,0,2-0.2,3-0.5c0.4-0.1,0.6,0.5,0.6,0.8c0,0.1,0,0.2-0.2,0.3c-3.3,1.8-9.2,2.6-11.3,2.6c-1.2,0-2-0.7-2-1.3
		c0-0.6,0.1-1.2,0.1-1.3c0.5-3.3,1.8-11.7,3.2-20.7c1.4-9,2.3-15.1,2.7-18.6c0.2-1.3-0.3-1.4-0.8-1.4c-0.6,0-1.6,0.2-2.7,0.5
		c-0.5,0.1-1-0.5-1-0.8c0-0.2,0.2-0.3,0.4-0.4C190.2,41.8,197.1,40.4,200.7,40.4L200.7,40.4z M199.7,24.8c3.4,0,4.4,2.4,4.4,4.4
		c0,2.9-1.9,5.9-5.8,5.9c-2.2,0-4.7-1.7-4.7-4.5c0-2.1,1.4-5.8,6-5.8H199.7z"/>
</g>
<path class="st1" d="M41.7,4.4c4.1-1.3,10.2-1.6,11.6-1.6c0,0.1,0-0.1,0,0c2.3,0,4.3,0.2,6.4,0.4C95.8,8,115,46.2,97.3,78
	c-0.7,1.3-0.9,3.4-0.5,4.9c2,7.2,4.3,14.3,6.7,22.1c-8-2.8-15.2-5.3-22.4-7.7c-1.4-0.4-3.1-0.1-4.6,0.2c-6.2,1.6-12.3,4.3-18.6,4.9
	C24.8,105.8-2.6,73.9,5.6,41.5C10.5,22.1,23.2,10.1,41.7,4.4"/>
</svg>
