<svg xmlns="http://www.w3.org/2000/svg" xmlns:xlink="http://www.w3.org/1999/xlink" preserveAspectRatio="xMidYMid" width="32" height="32" viewBox="0 0 32 32">
  <defs>
    <style>
      .cls-1 {
        fill: #fff;
        fill-rule: evenodd;
      }
    </style>
  </defs>
  <path d="M31.065,25.890 L16.594,31.878 C16.412,31.956 16.211,32.000 16.000,32.000 C15.789,32.000 15.588,31.956 15.406,31.878 L0.935,25.890 C0.387,25.667 0.000,25.129 0.000,24.500 L0.000,1.500 C0.000,0.672 0.672,0.000 1.500,0.000 C1.703,0.000 1.897,0.041 2.074,0.114 L2.074,0.114 L2.076,0.115 C2.080,0.117 2.085,0.119 2.089,0.121 L16.000,5.877 L29.911,0.121 C29.915,0.119 29.920,0.117 29.924,0.115 L29.927,0.114 L29.927,0.114 C30.103,0.041 30.297,0.000 30.500,0.000 C31.328,0.000 32.000,0.672 32.000,1.500 L32.000,24.500 C32.000,25.129 31.613,25.667 31.065,25.890 ZM14.500,8.503 L3.000,3.744 L3.000,23.497 L14.500,28.256 L14.500,8.503 ZM29.000,3.744 L17.500,8.503 L17.500,28.256 L29.000,23.497 L29.000,3.744 ZM19.879,10.635 L25.379,8.135 L25.379,8.135 C25.569,8.049 25.779,8.000 26.000,8.000 C26.828,8.000 27.500,8.672 27.500,9.500 C27.500,10.107 27.139,10.629 26.621,10.865 L26.621,10.866 L21.121,13.366 L21.121,13.366 C20.932,13.452 20.722,13.500 20.500,13.500 C19.672,13.500 19.000,12.829 19.000,12.000 C19.000,11.393 19.361,10.871 19.879,10.635 ZM19.879,16.135 L19.879,16.134 L25.379,13.635 L25.379,13.635 C25.569,13.548 25.779,13.500 26.000,13.500 C26.828,13.500 27.500,14.172 27.500,15.000 C27.500,15.607 27.139,16.129 26.621,16.366 L21.121,18.866 L21.121,18.866 C20.932,18.952 20.722,19.000 20.500,19.000 C19.672,19.000 19.000,18.328 19.000,17.500 C19.000,16.893 19.361,16.371 19.879,16.135 ZM19.879,21.635 L19.879,21.635 L25.379,19.135 L25.379,19.135 C25.569,19.048 25.779,19.000 26.000,19.000 C26.828,19.000 27.500,19.672 27.500,20.500 C27.500,21.107 27.139,21.630 26.621,21.866 L26.621,21.866 L21.121,24.366 L21.121,24.366 C20.932,24.452 20.722,24.500 20.500,24.500 C19.672,24.500 19.000,23.829 19.000,23.000 C19.000,22.393 19.361,21.871 19.879,21.635 ZM6.000,8.000 C6.221,8.000 6.431,8.049 6.621,8.135 L6.621,8.135 L12.121,10.635 L12.121,10.635 C12.639,10.871 13.000,11.393 13.000,12.000 C13.000,12.829 12.328,13.500 11.500,13.500 C11.279,13.500 11.069,13.452 10.879,13.366 L10.879,13.366 L5.379,10.866 L5.379,10.865 C4.861,10.629 4.500,10.107 4.500,9.500 C4.500,8.672 5.172,8.000 6.000,8.000 ZM6.000,13.500 C6.221,13.500 6.431,13.548 6.621,13.635 L6.621,13.635 L12.121,16.134 L12.121,16.135 C12.639,16.371 13.000,16.893 13.000,17.500 C13.000,18.328 12.328,19.000 11.500,19.000 C11.279,19.000 11.069,18.952 10.879,18.866 L10.879,18.866 L5.379,16.366 L5.379,16.366 C4.861,16.129 4.500,15.607 4.500,15.000 C4.500,14.172 5.172,13.500 6.000,13.500 ZM6.000,19.000 C6.221,19.000 6.431,19.048 6.621,19.135 L6.621,19.135 L12.121,21.635 L12.121,21.635 C12.639,21.871 13.000,22.393 13.000,23.000 C13.000,23.829 12.328,24.500 11.500,24.500 C11.279,24.500 11.069,24.452 10.879,24.366 L10.879,24.366 L5.379,21.866 L5.379,21.866 C4.861,21.630 4.500,21.107 4.500,20.500 C4.500,19.672 5.172,19.000 6.000,19.000 Z" class="cls-1"/>
</svg>
