<?xml version="1.0" encoding="utf-8"?>
<!-- Generator: Adobe Illustrator 19.0.0, SVG Export Plug-In . SVG Version: 6.00 Build 0)  -->
<svg version="1.1" id="Calque_1" xmlns="http://www.w3.org/2000/svg" xmlns:xlink="http://www.w3.org/1999/xlink" x="0px" y="0px"
	 viewBox="0 0 109.8 110" style="enable-background:new 0 0 109.8 110;" xml:space="preserve">
<style type="text/css">
	.st0{fill:none;stroke:#000000;stroke-width:4;stroke-miterlimit:10;}
	.st1{fill:none;stroke:#000000;stroke-width:5;stroke-miterlimit:10;}
</style>
<circle class="st0" cx="54.9" cy="55" r="52.3"/>
<g>
	<path d="M60.4,40.8c1.6,0,2.6,0.6,2.1,3.1c-0.8,3.8-2.2,11-4.2,21.1c-1.6,8.2-2.7,13.4-3.3,16.5c-0.2,0.9,0.2,1.3,0.7,1.3
		c0.8,0,2-0.2,2.9-0.5c0.4-0.1,0.6,0.5,0.6,0.8c0,0.1,0,0.2-0.2,0.3C55.7,85.2,50.1,86,48,86c-1.2,0-2-0.7-2-1.3
		c0-0.6,0.1-1.2,0.1-1.3c0.5-3.2,1.8-11.3,3.1-20c1.4-8.7,2.3-14.6,2.6-18c0.2-1.3-0.3-1.4-0.8-1.4c-0.6,0-1.6,0.2-2.6,0.5
		c-0.5,0.1-1-0.5-1-0.8c0-0.2,0.2-0.3,0.4-0.4C50.3,42.2,56.9,40.8,60.4,40.8L60.4,40.8z M59.5,25.8c3.3,0,4.3,2.3,4.3,4.3
		c0,2.8-1.9,5.7-5.6,5.7c-2.2,0-4.6-1.7-4.6-4.4c0-2.1,1.4-5.6,5.8-5.6H59.5z"/>
</g>
<path class="st1" d="M-74.9,91.3c4.1-1.3,10.2-1.6,11.6-1.6c0,0.1,0-0.1,0,0c2.3,0,4.3,0.2,6.4,0.4c36.1,4.8,55.3,43,37.6,74.7
	c-0.7,1.3-0.9,3.4-0.5,4.9c2,7.2,4.3,14.3,6.7,22.1c-8-2.8-15.2-5.3-22.4-7.7c-1.4-0.4-3.1-0.1-4.6,0.2c-6.2,1.6-12.3,4.3-18.6,4.9
	c-33.1,3.4-60.5-28.6-52.3-60.9C-106.1,109-93.4,97-74.9,91.3"/>
</svg>
