<svg xmlns="http://www.w3.org/2000/svg" xmlns:xlink="http://www.w3.org/1999/xlink" preserveAspectRatio="xMidYMid" width="22" height="29.031" viewBox="0 0 22 29.031">
  <defs>
    <style>
      .cls-1 {
        fill: #fff;
        fill-rule: evenodd;
      }
    </style>
  </defs>
  <path d="M20.500,29.031 L1.500,29.031 C0.672,29.031 0.000,28.360 0.000,27.531 L0.000,1.531 C0.000,0.703 0.672,0.031 1.500,0.031 L9.500,0.031 L9.500,5.525 L9.500,8.532 C9.500,10.192 10.843,11.538 12.500,11.538 L15.500,11.538 L22.000,11.538 L22.000,23.531 L22.000,27.531 C22.000,28.360 21.328,29.031 20.500,29.031 ZM12.500,10.035 C11.672,10.035 11.000,9.362 11.000,8.532 L11.000,5.525 L11.000,0.013 L22.000,10.035 L15.500,10.035 L12.500,10.035 Z" class="cls-1"/>
</svg>
