<svg xmlns="http://www.w3.org/2000/svg" xmlns:xlink="http://www.w3.org/1999/xlink" preserveAspectRatio="xMidYMid" width="32" height="30.5" viewBox="0 0 32 30.5">
  <defs>
    <style>
      .cls-1 {
        fill: #9a9a9a;
        fill-rule: evenodd;
      }
    </style>
  </defs>
  <path d="M32.000,16.000 C32.000,16.829 31.328,17.500 30.500,17.500 C30.105,17.500 29.748,17.344 29.480,17.094 L29.477,17.098 L16.038,3.660 L16.038,3.659 L16.000,3.623 L16.000,3.622 L2.554,17.069 L2.553,17.068 C2.282,17.335 1.910,17.500 1.500,17.500 C0.672,17.500 -0.000,16.829 -0.000,16.000 C-0.000,15.575 0.177,15.192 0.461,14.919 L14.919,0.461 C15.192,0.177 15.575,0.000 16.000,0.000 L16.000,0.000 L16.000,0.000 C16.000,0.000 16.000,0.000 16.001,0.000 C16.027,0.000 16.053,0.001 16.080,0.002 C16.084,0.002 16.088,0.003 16.092,0.003 C16.115,0.005 16.137,0.006 16.160,0.009 C16.161,0.009 16.162,0.009 16.164,0.009 C16.531,0.049 16.858,0.222 17.097,0.477 L17.098,0.477 L23.000,6.379 L23.000,5.000 C23.000,4.172 23.672,3.500 24.500,3.500 C25.328,3.500 26.000,4.172 26.000,5.000 L26.000,9.379 L31.598,14.977 L31.594,14.980 C31.844,15.248 32.000,15.605 32.000,16.000 ZM29.000,18.500 L29.000,23.000 L29.000,25.000 L29.000,29.000 C29.000,29.829 28.328,30.500 27.500,30.500 L24.500,30.500 L24.500,18.500 L18.500,18.500 L18.500,30.500 L4.500,30.500 C3.672,30.500 3.000,29.829 3.000,29.000 L3.000,25.000 L3.000,23.000 L3.000,18.500 L16.000,5.500 L29.000,18.500 ZM13.500,18.500 L7.500,18.500 L7.500,24.500 L13.500,24.500 L13.500,18.500 Z" class="cls-1"/>
</svg>
