<svg xmlns="http://www.w3.org/2000/svg" xmlns:xlink="http://www.w3.org/1999/xlink" preserveAspectRatio="xMidYMid" width="128" height="128" viewBox="0 0 128 128">
  <defs>
    <style>
      .cls-1 {
        fill: #fe5b5f;
        fill-rule: evenodd;
      }
    </style>
  </defs>
  <path d="M124.486,107.515 C126.657,109.687 128.000,112.687 128.000,116.001 C128.000,122.628 122.627,128.001 116.000,128.001 C112.687,128.001 109.686,126.657 107.515,124.486 L107.515,124.486 L72.346,89.317 C65.202,93.536 56.898,96.001 48.000,96.001 C21.491,96.001 0.000,74.510 0.000,48.001 C0.000,21.491 21.491,0.000 48.000,0.000 C74.510,0.000 96.000,21.491 96.000,48.001 C96.000,56.899 93.536,65.202 89.316,72.346 L124.486,107.515 L124.486,107.515 ZM48.000,12.000 C28.118,12.000 12.000,28.118 12.000,48.001 C12.000,67.883 28.118,84.001 48.000,84.001 C67.882,84.001 84.000,67.883 84.000,48.001 C84.000,28.118 67.882,12.000 48.000,12.000 Z" class="cls-1"/>
</svg>
