<svg xmlns="http://www.w3.org/2000/svg" xmlns:xlink="http://www.w3.org/1999/xlink" preserveAspectRatio="xMidYMid" width="32" height="32" viewBox="0 0 32 32">
  <defs>
    <style>
      .cls-1 {
        fill: #9a9a9a;
        fill-rule: evenodd;
      }
    </style>
  </defs>
  <path d="M31.121,26.879 C31.664,27.422 32.000,28.172 32.000,29.000 C32.000,30.657 30.657,32.000 29.000,32.000 C28.172,32.000 27.422,31.664 26.879,31.121 L26.879,31.121 L18.086,22.329 C16.300,23.384 14.225,24.000 12.000,24.000 C5.373,24.000 0.000,18.628 0.000,12.000 C0.000,5.373 5.373,0.000 12.000,0.000 C18.627,0.000 24.000,5.373 24.000,12.000 C24.000,14.225 23.384,16.300 22.329,18.087 L31.121,26.879 L31.121,26.879 ZM12.000,3.000 C7.029,3.000 3.000,7.030 3.000,12.000 C3.000,16.971 7.029,21.000 12.000,21.000 C16.971,21.000 21.000,16.971 21.000,12.000 C21.000,7.030 16.971,3.000 12.000,3.000 Z" class="cls-1"/>
</svg>
