<svg xmlns="http://www.w3.org/2000/svg" xmlns:xlink="http://www.w3.org/1999/xlink" preserveAspectRatio="xMidYMid" width="32" height="31" viewBox="0 0 32 31">
  <defs>
    <style>
      .cls-1 {
        fill: #9a9a9a;
        fill-rule: evenodd;
      }
    </style>
  </defs>
  <path d="M32.000,29.496 C32.000,29.498 32.000,29.499 32.000,29.500 C32.000,30.329 31.328,31.000 30.500,31.000 L1.500,31.000 C0.672,31.000 0.000,30.329 0.000,29.500 C0.000,29.499 0.000,29.498 0.000,29.496 L-0.001,29.496 C-0.001,29.496 -0.001,24.031 3.993,22.043 C6.521,20.786 5.548,21.806 8.650,20.519 C11.753,19.235 12.488,18.786 12.488,18.786 L12.517,15.824 C12.517,15.824 11.355,14.935 10.994,12.148 C10.267,12.359 10.027,11.295 9.984,10.618 C9.945,9.963 9.563,7.920 10.450,8.104 C10.269,6.740 10.138,5.509 10.202,4.858 C10.425,2.569 12.629,0.178 16.024,0.004 C20.017,0.178 21.599,2.567 21.821,4.856 C21.885,5.508 21.743,6.739 21.561,8.101 C22.449,7.919 22.063,9.959 22.020,10.614 C21.981,11.291 21.735,12.351 21.010,12.142 C20.647,14.928 19.485,15.810 19.485,15.810 L19.513,18.757 C19.513,18.757 20.247,19.176 23.350,20.461 C26.453,21.748 25.479,20.786 28.007,22.044 C32.001,24.031 32.001,29.496 32.001,29.496 L32.000,29.496 Z" class="cls-1"/>
</svg>
