<?xml version="1.0" encoding="utf-8"?>
<!-- Generator: Adobe Illustrator 19.0.0, SVG Export Plug-In . SVG Version: 6.00 Build 0)  -->
<svg version="1.1" id="Calque_1" xmlns="http://www.w3.org/2000/svg" xmlns:xlink="http://www.w3.org/1999/xlink" x="0px" y="0px"
	 viewBox="0 0 77.5 112.7" style="enable-background:new 0 0 77.5 112.7;" xml:space="preserve">
<style type="text/css">
	.st0{fill:none;stroke:#FE5B5F;stroke-width:5;stroke-miterlimit:10;}
	.st1{fill:#FE5B5F;}
</style>
<path class="st0" d="M74,40.6c0.3,20.7-21.8,52.5-34.4,66.3C30.3,97.5,3.4,62.6,3,41.8S18.3,4,37.9,3.7S73.7,19.9,74,40.6z"/>
<path class="st1" d="M59.4,34.6c11.6,1.1,20,14.5-5.5,53.4C87.4,53.2,76.3,6.9,39.7,3C9.5,4.4-21.7,48.3,34.3,88.1
	c-23.2-23.2-23-35.6-22.5-44.9c8-4,18.4-11.6,21.9-18.3S31.6,41.8,9.2,47.5C27.1,45.4,37,35.7,40,21.3C37.7,31.5,45,32.1,59.4,34.6"
	/>
</svg>
