<svg xmlns="http://www.w3.org/2000/svg" xmlns:xlink="http://www.w3.org/1999/xlink" preserveAspectRatio="xMidYMid" width="128" height="112" viewBox="0 0 128 112">
  <defs>
    <style>
      .cls-1 {
        fill: #ef656a;
        fill-rule: evenodd;
      }
    </style>
  </defs>
  <path d="M92.000,0.001 C82.385,0.001 74.677,3.454 67.878,10.253 C67.874,10.257 67.871,10.260 67.867,10.264 C67.866,10.265 67.865,10.266 67.864,10.267 L64.000,15.131 L60.136,10.558 C60.132,10.554 60.128,10.550 60.124,10.546 C60.124,10.546 60.123,10.546 60.122,10.545 L60.122,10.545 C53.323,3.746 45.615,0.001 36.000,0.001 C26.384,0.001 17.343,3.746 10.544,10.545 C3.745,17.344 0.000,26.384 0.000,36.000 C-0.000,45.611 3.740,54.646 10.533,61.445 L58.320,109.633 C59.822,111.149 61.867,112.000 64.000,112.000 C66.133,112.000 68.178,111.149 69.681,109.633 L117.464,61.448 C124.258,54.650 128.000,45.613 128.000,36.001 C128.001,26.385 124.256,17.345 117.456,10.545 C110.656,3.746 101.616,0.001 92.000,0.001 L92.000,0.001 Z" class="cls-1"/>
</svg>
