<?xml version="1.0" encoding="utf-8"?>
<!-- Generator: Adobe Illustrator 19.0.0, SVG Export Plug-In . SVG Version: 6.00 Build 0)  -->
<svg version="1.1" id="Calque_1" xmlns="http://www.w3.org/2000/svg" xmlns:xlink="http://www.w3.org/1999/xlink" x="0px" y="0px"
	 viewBox="0 0 224 270" style="enable-background:new 0 0 224 270;" xml:space="preserve">
<style type="text/css">
	.st0{fill:#cdc5c5;fill-rule:evenodd;clip-rule:evenodd;}
</style>
<path class="st0" d="M64.4,77.4c2,3.3,3.9,6.5,4.7,10.3c1.4,7.4,4.5,14.3,8.7,20.5c2.1,3.1,4.5,6.1,6.9,9c1.2,1.5,1.7,2.9,1.7,4.8
	c0,4.2-0.3,8.3-2.1,12.1c-0.2,0.5-0.3,1.3,0,1.7c4.9,7.7,10.5,14.9,19.5,18c4.7,1.6,9.8,1,14.5-1.5c5.4-3,9.5-7.3,13.2-12
	c1.6-2.1,3.1-4.2,4.4-6.4c0.5-0.8,0.6-1.9,0.5-2.8c-0.3-3.2-0.7-6.4-1.1-9.6c-0.2-1.8,0.9-3.1,2-4.4c6.1-7.1,10.9-14.9,13.9-23.9
	c0.3-0.9,0.5-1.8,0.7-2.7c0.8-4.8,2.8-9,5.7-13.2c-0.1,1.9-0.1,3.8-0.4,5.6c-0.9,7.2-0.9,14.3,0,21.5c0.2,1.9,0.3,3.7,0.5,5.6
	c0.7,6.8,2.1,13.5,4.6,19.9c0.5,1.3,1.2,2.6,1.4,4c0.4,2.1,1.9,2.7,3.5,3.4c6.6,2.8,13.2,5.6,19.6,8.6c3.1,1.5,5.8,3.6,8.7,5.4
	c4.7,3,7.6,7.5,9.4,12.6c1.9,5.5,3.8,10.9,5.4,16.5c2,7.1,3.8,14.3,5.3,21.5c2.5,12.2,3.3,24.6,2.6,37c-0.3,5.7-3.5,10-9,11.7
	c-10.1,3.1-20.3,6.2-30.5,9.1c-2.9,0.8-5.9,1.1-8.9,1.7c-3.2,0.6-6.5,1.3-9.7,2c-0.1,0-0.2,0.1-0.3,0.1c-4.6,0.5-9.3,1.5-13.9,1.5
	c-20.9,0.2-41.7,0.2-62.6,0c-5.5-0.1-11.1-1.4-16.6-2.2c-3-0.4-5.9-0.9-8.9-1.4c-4.9-0.9-9.8-1.7-14.7-2.9c-8.1-2.1-16.1-4.3-24-6.8
	c-3.8-1.2-7.5-3-11.3-4.4c-2.1-0.8-3.4-2.4-4.1-4.4c-0.8-2.1-1.5-4.4-1.5-6.6c0-4.9,0.4-9.8,0.8-14.6c0.4-4.7,1-9.3,1.5-14
	c1.2-10.8,3.5-21.4,6.5-31.8c1.7-6,4.1-11.7,6.9-17.2c2.7-5.5,7.1-9.4,12.4-12c4.5-2.2,9.4-3.9,14.1-5.7c3.5-1.3,6.9-2.7,10.5-3.9
	c3-1,3.4-3.7,4.2-6.1c1.9-5.1,3.3-10.4,4.1-15.8c1.7-11,2.9-22.1,1.3-33.2C64.2,80.6,64.4,79,64.4,77.4z"/>
<path class="st0" d="M158.9,62.8c-4.3-1.1-2.7,2.9-4.5,4c-2.2-0.4-4.3-1.8-6.2-3.4c-4.7-3.9-8.3-8.6-10.3-14.5
	c-0.6-1.7-1-1.8-2.6-0.6c-7.1,5.1-14.9,9-23.2,11.7c-6.3,2.1-12.8,3.5-19.4,4.6c-9.2,1.5-18.3,1-27.4,0.9c-3.4,0-3.6-0.2-3.6-3.5
	c-0.1-5.8-0.6-11.7,0.2-17.5c1.7-13.4,7.3-24.8,19.2-32.2C85,9.7,89.7,8.4,94.4,7c5.4-1.5,10.9-2.3,16.5-2.3
	c10.8-0.1,20.6,3,29.6,8.9c5.3,3.4,10,7.5,13,13.1c2.1,4,3.3,8.2,4.3,12.6c1.3,5.8,1.2,11.6,1.6,17.4
	C159.5,58.6,159.1,60.5,158.9,62.8z"/>
</svg>
