<?xml version="1.0" encoding="utf-8"?>
<!-- Generator: Adobe Illustrator 19.0.0, SVG Export Plug-In . SVG Version: 6.00 Build 0)  -->
<svg version="1.1" id="Calque_1" xmlns="http://www.w3.org/2000/svg" xmlns:xlink="http://www.w3.org/1999/xlink" x="0px" y="0px"
	 viewBox="0 0 224 270" style="enable-background:new 0 0 224 270;" xml:space="preserve">
<style type="text/css">
	.st0{fill:#cdc5c5;fill-rule:evenodd;clip-rule:evenodd;}
</style>
<path class="st0" d="M-238.6,374.4c2,3.3,3.9,6.5,4.7,10.3c1.4,7.4,4.5,14.3,8.7,20.5c2.1,3.1,4.5,6.1,6.9,9
	c1.2,1.5,1.7,2.9,1.7,4.8c0,4.2-0.3,8.3-2.1,12.1c-0.2,0.5-0.3,1.3,0,1.7c4.9,7.7,10.5,14.9,19.5,18c4.7,1.6,9.8,1,14.5-1.5
	c5.4-3,9.5-7.3,13.2-12c1.6-2.1,3.1-4.2,4.4-6.4c0.5-0.8,0.6-1.9,0.5-2.8c-0.3-3.2-0.7-6.4-1.1-9.6c-0.2-1.8,0.9-3.1,2-4.4
	c6.1-7.1,10.9-14.9,13.9-23.9c0.3-0.9,0.5-1.8,0.7-2.7c0.8-4.8,2.8-9,5.7-13.2c-0.1,1.9-0.1,3.8-0.4,5.6c-0.9,7.2-0.9,14.3,0,21.5
	c0.2,1.9,0.3,3.7,0.5,5.6c0.7,6.8,2.1,13.5,4.6,19.9c0.5,1.3,1.2,2.6,1.4,4c0.4,2.1,1.9,2.7,3.5,3.4c6.6,2.8,13.2,5.6,19.6,8.6
	c3.1,1.5,5.8,3.6,8.7,5.4c4.7,3,7.6,7.5,9.4,12.6c1.9,5.5,3.8,10.9,5.4,16.5c2,7.1,3.8,14.3,5.3,21.5c2.5,12.2,3.3,24.6,2.6,37
	c-0.3,5.7-3.5,10-9,11.7c-10.1,3.1-20.3,6.2-30.5,9.1c-2.9,0.8-5.9,1.1-8.9,1.7c-3.2,0.6-6.5,1.3-9.7,2c-0.1,0-0.2,0.1-0.3,0.1
	c-4.6,0.5-9.3,1.5-13.9,1.5c-20.9,0.2-41.7,0.2-62.6,0c-5.5-0.1-11.1-1.4-16.6-2.2c-3-0.4-5.9-0.9-8.9-1.4
	c-4.9-0.9-9.8-1.7-14.7-2.9c-8.1-2.1-16.1-4.3-24-6.8c-3.8-1.2-7.5-3-11.3-4.4c-2.1-0.8-3.4-2.4-4.1-4.4c-0.8-2.1-1.5-4.4-1.5-6.6
	c0-4.9,0.4-9.8,0.8-14.6c0.4-4.7,1-9.3,1.5-14c1.2-10.8,3.5-21.4,6.5-31.8c1.7-6,4.1-11.7,6.9-17.2c2.7-5.5,7.1-9.4,12.4-12
	c4.5-2.2,9.4-3.9,14.1-5.7c3.5-1.3,6.9-2.7,10.5-3.9c3-1,3.4-3.7,4.2-6.1c1.9-5.1,3.3-10.4,4.1-15.8c1.7-11,2.9-22.1,1.3-33.2
	C-238.8,377.7-238.6,376.1-238.6,374.4z"/>
<path class="st0" d="M-144.1,359.8c-4.3-1.1-2.7,2.9-4.5,4c-2.2-0.4-4.3-1.8-6.2-3.4c-4.7-3.9-8.3-8.6-10.3-14.5
	c-0.6-1.7-1-1.8-2.6-0.6c-7.1,5.1-14.9,9-23.2,11.7c-6.3,2.1-12.8,3.5-19.4,4.6c-9.2,1.5-18.3,1-27.4,0.9c-3.4,0-3.6-0.2-3.6-3.5
	c-0.1-5.8-0.6-11.7,0.2-17.5c1.7-13.4,7.3-24.8,19.2-32.2c4.1-2.6,8.8-3.9,13.5-5.2c5.4-1.5,10.9-2.3,16.5-2.3
	c10.8-0.1,20.6,3,29.6,8.9c5.3,3.4,10,7.5,13,13.1c2.1,4,3.3,8.2,4.3,12.6c1.3,5.8,1.2,11.6,1.6,17.4
	C-143.5,355.6-143.9,357.6-144.1,359.8z"/>
<path class="st0" d="M113.9,251.2c6.6-17.1,13.3-34.2,19.9-51.3c3.6-9.4,6.9-18.9,11.1-28.1c2.6-5.8,1.8-11.3,1.1-17.1
	c-1-7.3-1.9-14.5-2.7-21.8c-0.1-0.7,0.4-1.5,0.5-2.1c0.6-0.2,1.1-0.4,1.2-0.3c11.2,8.3,24.7,11.6,37.3,16.7
	c11.3,4.6,17.6,13.3,21.2,24.5c4.9,15.2,8.1,30.7,9.2,46.7c0.5,7.3,2.5,14.4-0.5,21.5c-0.9,2-2.6,4.6-4.5,5.2
	c-12.2,4-24.4,8.7-37,11.1c-18.5,3.5-37.3,6.9-56.1,7.4c-16.4,0.4-33.1-2.6-49.4-5.2c-13-2.1-25.8-5.8-38.6-9c-4-1-8.8-1.9-11.3-4.7
	c-2.9-3.2-5.2-8.4-5.1-12.7c0.3-10.2,1.7-20.4,3.5-30.5c1.7-9.6,4.5-19,6.7-28.5c3.4-14.8,13-23.5,27.2-27.8
	c10.6-3.2,21-6.9,29.9-13.9c3.3-2.6,4.1-0.2,4.1,2.6c0,7.5,0.4,15.1-0.4,22.5c-1.1,9.9,2.5,18.7,5.7,27.5
	c6.7,18.5,13.9,36.7,21,55.1c1.6,4.1,3.2,8.2,4.8,12.3C113,251.2,113.5,251.2,113.9,251.2z"/>
<path class="st0" d="M162.3,51.6c0,8.1,0.5,16.3-0.2,24.4c-0.5,5.4-2.3,10.8-4.1,16c-2.6,7.3-5,14.8-8.9,21.5
	c-7.4,13-17.5,23.3-33.2,26c-11.2,1.9-20.1-3-27.9-10.1c-9.9-9-15.7-20.5-19.3-33.3c-2.1-7.4-6.3-14.3-5.1-22.5
	c0.3-2.1,1-4.2,1.3-6.3c0.3-1.9,0.8-3.9,0.4-5.8C62.6,48.7,62.7,36,71,25c9-12,20.3-21.7,36.2-20.6c9.5,0.7,18.7,4.6,28,7.4
	c9.5,2.9,17.1,8.4,22.7,16.8C162.5,35.7,162.7,43.6,162.3,51.6z M106.7,12.5c-3.2,0.7-5.7,0.8-7.7,1.7c-24.5,10.8-29.3,26.1-24.4,50
	c0.6,2.8,0.1,5.8-0.3,8.7c-0.2,2.2-1.8,4.5-1.4,6.4c1,4.6,3.2,8.9,4.2,13.4c3.6,15.3,11.2,28,25,36c4.1,2.4,8.7,3.9,14.2,2.1
	c12-3.9,20.1-12,25.7-22.6c3.7-7.1,5.9-14.9,9.1-22.3c2-4.7,3.5-9.3,0.5-14.1c-0.5-0.9-0.6-2.3-0.4-3.4c0.8-4.4,1.6-8.8,2.8-13.1
	c2.3-8.6-1.7-24.7-11.1-29.8c-5.1-2.8-10.5-5.5-16-7.4C120.1,15.7,112.9,14.2,106.7,12.5z"/>
<path class="st0" d="M99.1,145.9c9.7,0,18.7,0,28.5,0c-4.4,6.9-8.7,13.5-13.3,20.6c1.9,1.4,3.7,3.4,6,4.4c5.3,2.4,5.3,6.4,4.4,11.2
	c-2,10.9-3.9,21.8-5.8,32.7c-1.6,9.1-3.2,18.2-4.8,27.2c-0.4,0-0.9-0.1-1.3-0.1c-0.9-4.1-2-8.1-2.6-12.2
	c-2.5-15.7-4.2-31.7-7.7-47.1c-1.7-7.6,1.1-10.7,6.7-13.3c3.1-1.4,3.5-3,1.6-5.7C106.8,157.9,103.1,152,99.1,145.9z"/>
</svg>
