<svg xmlns="http://www.w3.org/2000/svg" xmlns:xlink="http://www.w3.org/1999/xlink" preserveAspectRatio="xMidYMid" width="31" height="27.97" viewBox="0 0 31 27.97">
  <defs>
    <style>
      .cls-1 {
        fill: #fe5b5f;
        fill-rule: evenodd;
      }
    </style>
  </defs>
  <path d="M28.097,27.983 L19.393,27.983 L15.507,27.983 L11.622,27.983 L2.918,27.983 C1.313,27.983 0.012,26.687 0.012,25.087 L0.012,2.883 C0.012,1.284 1.313,-0.012 2.918,-0.012 L28.097,-0.012 C29.701,-0.012 31.002,1.284 31.002,2.883 L31.002,25.087 C31.002,26.687 29.701,27.983 28.097,27.983 ZM29.065,3.849 C29.065,2.782 28.198,1.918 27.128,1.918 L3.886,1.918 C2.816,1.918 1.949,2.782 1.949,3.849 L1.949,24.122 C1.949,25.189 2.816,26.052 3.886,26.052 L12.590,26.052 L15.507,26.053 L18.425,26.052 L27.128,26.052 C28.198,26.052 29.065,25.189 29.065,24.122 L29.065,3.849 ZM24.223,9.641 L6.791,9.641 C6.257,9.641 5.823,9.209 5.823,8.676 C5.823,8.142 6.257,7.710 6.791,7.710 L24.223,7.710 C24.758,7.710 25.192,8.142 25.192,8.676 C25.192,9.209 24.758,9.641 24.223,9.641 ZM6.791,13.503 L16.476,13.503 C17.011,13.503 17.444,13.935 17.444,14.468 C17.444,15.002 17.011,15.433 16.476,15.433 L6.791,15.433 C6.257,15.433 5.823,15.002 5.823,14.468 C5.823,13.935 6.257,13.503 6.791,13.503 ZM6.791,19.295 L17.444,19.295 C17.979,19.295 18.413,19.727 18.413,20.260 C18.413,20.793 17.979,21.226 17.444,21.226 L6.791,21.226 C6.257,21.226 5.823,20.793 5.823,20.260 C5.823,19.727 6.257,19.295 6.791,19.295 Z" class="cls-1"/>
</svg>
