<svg xmlns="http://www.w3.org/2000/svg" xmlns:xlink="http://www.w3.org/1999/xlink" preserveAspectRatio="xMidYMid" width="35" height="35" viewBox="0 0 35 35">
  <defs>
    <style>
      .cls-1 {
        fill: #a9aeb1;
        fill-rule: evenodd;
      }
    </style>
  </defs>
  <path d="M17.495,34.994 C7.826,34.994 -0.013,27.163 -0.013,17.502 C-0.013,7.842 7.826,0.011 17.495,0.011 C27.164,0.011 35.003,7.842 35.003,17.502 C35.003,27.163 27.164,34.994 17.495,34.994 ZM17.495,2.198 C9.034,2.198 2.176,9.050 2.176,17.502 C2.176,25.956 9.034,32.808 17.495,32.808 C25.956,32.808 32.815,25.956 32.815,17.502 C32.815,9.050 25.956,2.198 17.495,2.198 ZM19.459,12.286 C19.032,12.286 18.667,12.125 18.363,11.802 C18.060,11.479 17.908,11.091 17.908,10.637 C17.908,10.183 18.060,9.796 18.363,9.477 C18.667,9.159 19.032,8.999 19.459,8.999 C19.886,8.999 20.250,9.158 20.550,9.477 C20.849,9.796 21.000,10.183 21.000,10.637 C21.000,11.091 20.849,11.480 20.550,11.802 C20.250,12.125 19.887,12.286 19.459,12.286 ZM20.095,14.462 L18.308,21.431 C18.158,22.029 18.057,22.443 18.004,22.675 C17.869,23.264 17.801,23.647 17.801,23.822 C17.801,23.998 17.839,24.111 17.914,24.163 C17.989,24.215 18.072,24.241 18.162,24.241 C18.395,24.241 18.684,24.029 19.029,23.607 C19.375,23.185 19.679,22.742 19.942,22.280 L20.448,22.627 C19.698,23.798 19.123,24.587 18.725,24.994 C18.073,25.663 17.375,25.998 16.632,25.998 C16.212,25.998 15.835,25.861 15.501,25.585 C15.167,25.311 15.000,24.890 15.000,24.324 C15.000,24.125 15.045,23.810 15.135,23.380 C15.188,23.133 15.266,22.806 15.371,22.399 L16.787,16.901 C16.802,16.837 16.815,16.773 16.826,16.709 C16.837,16.646 16.843,16.586 16.843,16.530 C16.843,16.204 16.746,16.001 16.552,15.920 C16.357,15.841 16.001,15.789 15.485,15.765 L15.485,15.120 C15.917,15.088 16.544,15.022 17.366,14.922 C18.188,14.823 18.770,14.737 19.113,14.665 L20.095,14.462 Z" class="cls-1"/>
</svg>
